<mxfile host="app.diagrams.net" agent="Mozilla/5.0 (Windows NT 10.0; Win64; x64) AppleWebKit/537.36 (KHTML, like Gecko) Chrome/131.0.0.0 Safari/537.36" version="24.8.6">
  <diagram id="UPar3H-qyHNoHipAjG_C" name="Halaman-1">
    <mxGraphModel dx="2171" dy="1160" grid="1" gridSize="10" guides="1" tooltips="1" connect="1" arrows="1" fold="1" page="1" pageScale="1" pageWidth="827" pageHeight="1169" math="0" shadow="0">
      <root>
        <mxCell id="0" />
        <mxCell id="1" parent="0" />
        <mxCell id="j6BA7cdrJhm7dCIvUNmw-1" value="1" style="ellipse;whiteSpace=wrap;html=1;aspect=fixed;" vertex="1" parent="1">
          <mxGeometry x="340" y="90" width="80" height="80" as="geometry" />
        </mxCell>
        <mxCell id="j6BA7cdrJhm7dCIvUNmw-4" value="" style="endArrow=classic;html=1;rounded=0;exitX=0.5;exitY=1;exitDx=0;exitDy=0;" edge="1" parent="1" source="j6BA7cdrJhm7dCIvUNmw-1">
          <mxGeometry width="50" height="50" relative="1" as="geometry">
            <mxPoint x="350" y="160" as="sourcePoint" />
            <mxPoint x="380" y="240" as="targetPoint" />
          </mxGeometry>
        </mxCell>
        <mxCell id="j6BA7cdrJhm7dCIvUNmw-9" value="" style="edgeStyle=orthogonalEdgeStyle;rounded=0;orthogonalLoop=1;jettySize=auto;html=1;" edge="1" parent="1" source="j6BA7cdrJhm7dCIvUNmw-5" target="j6BA7cdrJhm7dCIvUNmw-6">
          <mxGeometry relative="1" as="geometry" />
        </mxCell>
        <mxCell id="j6BA7cdrJhm7dCIvUNmw-5" value="2" style="ellipse;whiteSpace=wrap;html=1;aspect=fixed;" vertex="1" parent="1">
          <mxGeometry x="340" y="240" width="80" height="80" as="geometry" />
        </mxCell>
        <mxCell id="j6BA7cdrJhm7dCIvUNmw-11" value="" style="edgeStyle=orthogonalEdgeStyle;rounded=0;orthogonalLoop=1;jettySize=auto;html=1;" edge="1" parent="1" source="j6BA7cdrJhm7dCIvUNmw-6" target="j6BA7cdrJhm7dCIvUNmw-10">
          <mxGeometry relative="1" as="geometry" />
        </mxCell>
        <mxCell id="j6BA7cdrJhm7dCIvUNmw-6" value="3" style="ellipse;whiteSpace=wrap;html=1;aspect=fixed;" vertex="1" parent="1">
          <mxGeometry x="340" y="370" width="80" height="80" as="geometry" />
        </mxCell>
        <mxCell id="j6BA7cdrJhm7dCIvUNmw-7" value="5" style="ellipse;whiteSpace=wrap;html=1;aspect=fixed;" vertex="1" parent="1">
          <mxGeometry x="220" y="490" width="80" height="80" as="geometry" />
        </mxCell>
        <mxCell id="j6BA7cdrJhm7dCIvUNmw-8" value="" style="endArrow=classic;html=1;rounded=0;entryX=1;entryY=0;entryDx=0;entryDy=0;" edge="1" parent="1" source="j6BA7cdrJhm7dCIvUNmw-6" target="j6BA7cdrJhm7dCIvUNmw-7">
          <mxGeometry width="50" height="50" relative="1" as="geometry">
            <mxPoint x="350" y="310" as="sourcePoint" />
            <mxPoint x="350" y="380" as="targetPoint" />
          </mxGeometry>
        </mxCell>
        <mxCell id="j6BA7cdrJhm7dCIvUNmw-13" value="" style="edgeStyle=orthogonalEdgeStyle;rounded=0;orthogonalLoop=1;jettySize=auto;html=1;" edge="1" parent="1" source="j6BA7cdrJhm7dCIvUNmw-10" target="j6BA7cdrJhm7dCIvUNmw-12">
          <mxGeometry relative="1" as="geometry" />
        </mxCell>
        <mxCell id="j6BA7cdrJhm7dCIvUNmw-10" value="4" style="ellipse;whiteSpace=wrap;html=1;aspect=fixed;" vertex="1" parent="1">
          <mxGeometry x="340" y="510" width="80" height="80" as="geometry" />
        </mxCell>
        <mxCell id="j6BA7cdrJhm7dCIvUNmw-19" value="" style="edgeStyle=orthogonalEdgeStyle;rounded=0;orthogonalLoop=1;jettySize=auto;html=1;" edge="1" parent="1" source="j6BA7cdrJhm7dCIvUNmw-12" target="j6BA7cdrJhm7dCIvUNmw-14">
          <mxGeometry relative="1" as="geometry" />
        </mxCell>
        <mxCell id="j6BA7cdrJhm7dCIvUNmw-12" value="6" style="ellipse;whiteSpace=wrap;html=1;aspect=fixed;" vertex="1" parent="1">
          <mxGeometry x="340" y="660" width="80" height="80" as="geometry" />
        </mxCell>
        <mxCell id="j6BA7cdrJhm7dCIvUNmw-18" value="" style="edgeStyle=orthogonalEdgeStyle;rounded=0;orthogonalLoop=1;jettySize=auto;html=1;" edge="1" parent="1" source="j6BA7cdrJhm7dCIvUNmw-14" target="j6BA7cdrJhm7dCIvUNmw-15">
          <mxGeometry relative="1" as="geometry" />
        </mxCell>
        <mxCell id="j6BA7cdrJhm7dCIvUNmw-14" value="7" style="ellipse;whiteSpace=wrap;html=1;aspect=fixed;" vertex="1" parent="1">
          <mxGeometry x="340" y="800" width="80" height="80" as="geometry" />
        </mxCell>
        <mxCell id="j6BA7cdrJhm7dCIvUNmw-15" value="9" style="ellipse;whiteSpace=wrap;html=1;aspect=fixed;" vertex="1" parent="1">
          <mxGeometry x="340" y="940" width="80" height="80" as="geometry" />
        </mxCell>
        <mxCell id="j6BA7cdrJhm7dCIvUNmw-16" value="8" style="ellipse;whiteSpace=wrap;html=1;aspect=fixed;" vertex="1" parent="1">
          <mxGeometry x="210" y="910" width="80" height="80" as="geometry" />
        </mxCell>
        <mxCell id="j6BA7cdrJhm7dCIvUNmw-17" value="" style="endArrow=classic;html=1;rounded=0;entryX=1;entryY=0;entryDx=0;entryDy=0;" edge="1" parent="1">
          <mxGeometry width="50" height="50" relative="1" as="geometry">
            <mxPoint x="350" y="860" as="sourcePoint" />
            <mxPoint x="286" y="924" as="targetPoint" />
          </mxGeometry>
        </mxCell>
      </root>
    </mxGraphModel>
  </diagram>
</mxfile>
